<svg width="26" height="18" viewBox="0 0 26 18" fill="none" xmlns="http://www.w3.org/2000/svg">
<path d="M25.0755 0H0.924466C0.41891 0 0 0.365331 0 0.818665V17.1813C0 17.6347 0.41891 18 0.924466 18H25.0755C25.5811 18 26 17.6347 26 17.1813V0.818665C26 0.365331 25.5811 0 25.0755 0ZM23.9056 2.83333V16.1587H2.09437V2.83333L1.28558 2.28266L2.42674 0.992004L3.66895 1.844H22.3311L23.5733 0.992004L24.7144 2.28266L23.9056 2.83333ZM22.3311 1.84133L13 8.23334L3.66895 1.84133L2.42674 0.989329L1.28558 2.28133L2.07992 2.83067L12.0034 9.62134C12.2779 9.816 12.6389 9.92267 13 9.92267C13.3611 9.92267 13.7077 9.816 13.9966 9.62134L23.9056 2.83333L24.7144 2.28266L23.5733 0.992004L22.3311 1.84133Z" fill="white"/>
</svg>
