<svg width="24" height="24" viewBox="0 0 24 24" fill="none" xmlns="http://www.w3.org/2000/svg">
<path d="M23.04 0H0.960022C0.435022 0 0 0.428999 0 0.959999V23.04C0 23.571 0.435022 24 0.960022 24H23.04C23.565 24 24 23.571 24 23.04V0.959999C24 0.428999 23.565 0 23.04 0ZM22.08 22.08H16.5601V14.706H19.68L20.1451 11.085H16.5601V8.77201C16.5601 7.72201 16.845 7.008 18.345 7.008H20.265V3.76799C19.935 3.72299 18.795 3.624 17.475 3.624C14.7 3.624 12.8101 5.313 12.8101 8.412V11.082H9.68994V14.703H12.8101V22.08H1.92004V1.92H22.08V22.08Z" fill="white"/>
</svg>
