<svg width="27" height="25" viewBox="0 0 27 25" fill="none" xmlns="http://www.w3.org/2000/svg">
<path d="M21.6126 11.4525L22.2875 9.80388C22.6025 9.0315 23.3673 8.60919 24.1172 8.77034L24.2822 8.8134L25.1222 9.09402C25.9771 9.37185 26.6221 10.1149 26.832 11.0484C27.327 13.268 26.7269 15.9697 25.0471 19.1547C23.3673 22.3343 21.5226 24.2458 19.5128 24.8894C19.1229 25.0129 18.7179 25.033 18.3279 24.9496C17.938 24.8663 17.5631 24.6826 17.2631 24.4156L17.0981 24.2566L16.4531 23.5898C16.1832 23.3027 16.0032 22.9333 15.9582 22.5363C15.8982 22.1393 15.9732 21.7348 16.1532 21.3814L16.2431 21.2189L17.2181 19.7465C17.608 19.1672 18.2679 18.8937 18.8979 19.0311L19.0628 19.0797L20.8627 19.6965C21.5976 19.1239 22.1975 18.4064 22.6625 17.5865C23.0524 16.9055 23.3224 16.1575 23.4574 15.378L23.5175 15.003L22.0176 13.5417C21.7777 13.2994 21.5976 12.993 21.5226 12.6563C21.4326 12.3198 21.4476 11.9661 21.5526 11.6345L21.6126 11.4525ZM23.9523 0C24.7622 0 25.5272 0.329238 26.0971 0.915317C26.6671 1.50155 26.982 2.29647 26.982 3.12534V8.65225C26.652 8.31916 26.247 8.05445 25.8121 7.87169L25.5422 7.77029L24.9572 7.57996V3.12534C24.9572 2.84905 24.8522 2.58402 24.6722 2.38861C24.4772 2.19336 24.2223 2.08361 23.9523 2.08361H3.02969C2.77472 2.08361 2.50479 2.19336 2.32481 2.38861C2.12984 2.58402 2.02474 2.84905 2.02474 3.12534V19.1061C2.02474 19.6812 2.47475 20.148 3.02969 20.148L6.74925 20.1466V16.3211C6.74925 15.7111 6.97429 15.1234 7.37924 14.6746C7.7692 14.2258 8.32398 13.9489 8.90892 13.8987L9.1039 13.8904H17.8781C18.463 13.8904 19.0479 14.1201 19.4828 14.5336C19.9178 14.9471 20.1877 15.5143 20.2327 16.1225V16.3211V18.0185L19.4828 17.7616L19.2728 17.6949C18.9279 17.6072 18.568 17.5851 18.208 17.6296V16.3211C18.208 16.2432 18.1929 16.1674 18.1329 16.1061C18.0879 16.0448 18.0279 16.0018 17.953 15.9836L17.8781 15.9738H9.1039C9.02891 15.974 8.95408 16.0005 8.89409 16.0493C8.84909 16.0979 8.804 16.1658 8.789 16.2419L8.77399 16.3211V20.1466H15.3282L15.1333 20.4383L14.9983 20.6549C14.7284 21.1439 14.5933 21.6884 14.5783 22.2301H3.02969C2.23478 22.2301 1.45479 21.901 0.88485 21.3152C0.314914 20.7295 0 19.9348 0 19.1061V3.12534C0 2.29647 0.314914 1.50155 0.88485 0.915317C1.45479 0.329238 2.23478 0 3.02969 0H23.9523ZM13.4985 4.16707C14.5784 4.16707 15.5983 4.6062 16.3632 5.38769C17.1131 6.16918 17.548 7.22896 17.548 8.33429C17.548 9.43945 17.1131 10.4992 16.3632 11.2807C15.5983 12.0622 14.5784 12.5014 13.4985 12.5014C12.4186 12.5014 11.3987 12.0622 10.6338 11.2807C9.86885 10.4992 9.44902 9.43945 9.44902 8.33429C9.44902 7.22896 9.86885 6.16918 10.6338 5.38769C11.3987 4.6062 12.4186 4.16707 13.4985 4.16707ZM13.4985 6.25068C12.9586 6.25068 12.4487 6.47017 12.0587 6.86099C11.6838 7.25166 11.4738 7.78155 11.4738 8.33429C11.4738 8.88687 11.6838 9.41676 12.0587 9.80743C12.4487 10.1983 12.9586 10.4177 13.4985 10.4177C14.0384 10.4177 14.5483 10.1983 14.9233 9.80743C15.3132 9.41676 15.5232 8.88687 15.5232 8.33429C15.5232 7.78155 15.3132 7.25166 14.9233 6.86099C14.5483 6.47017 14.0384 6.25068 13.4985 6.25068Z" fill="white"/>
</svg>
