<svg width="24" height="29" viewBox="0 0 24 29" fill="none" xmlns="http://www.w3.org/2000/svg">
<path d="M12.7059 28.2353L12.3529 24H12C8.65882 24 5.82353 22.8353 3.49412 20.5059C1.16471 18.1765 0 15.3412 0 12C0 8.65882 1.16471 5.82353 3.49412 3.49412C5.82353 1.16471 8.65882 0 12 0C13.6706 0 15.2292 0.311529 16.6758 0.934588C18.1233 1.55859 19.3944 2.41741 20.4889 3.51106C21.5826 4.60565 22.4409 5.87624 23.064 7.32282C23.688 8.77035 24 10.3294 24 12C24 15.5765 22.9294 18.7821 20.7882 21.6169C18.6471 24.4527 15.9529 26.6588 12.7059 28.2353ZM11.9647 19.7294C12.3647 19.7294 12.7059 19.5882 12.9882 19.3059C13.2706 19.0235 13.4118 18.6824 13.4118 18.2824C13.4118 17.8824 13.2706 17.5412 12.9882 17.2588C12.7059 16.9765 12.3647 16.8353 11.9647 16.8353C11.5647 16.8353 11.2235 16.9765 10.9412 17.2588C10.6588 17.5412 10.5176 17.8824 10.5176 18.2824C10.5176 18.6824 10.6588 19.0235 10.9412 19.3059C11.2235 19.5882 11.5647 19.7294 11.9647 19.7294ZM10.9412 15.2471H13.0588C13.0588 14.5412 13.1294 14.0471 13.2706 13.7647C13.4118 13.4824 13.8588 12.9647 14.6118 12.2118C15.0353 11.7882 15.3882 11.3294 15.6706 10.8353C15.9529 10.3412 16.0941 9.81177 16.0941 9.24706C16.0941 8.04706 15.6885 7.14682 14.8772 6.54635C14.0649 5.94682 13.1059 5.64706 12 5.64706C10.9647 5.64706 10.0941 5.93506 9.38824 6.51106C8.68235 7.088 8.18824 7.78824 7.90588 8.61177L9.88235 9.38824C10 8.98823 10.2235 8.59388 10.5529 8.20518C10.8824 7.81741 11.3647 7.62353 12 7.62353C12.6353 7.62353 13.112 7.8 13.4301 8.15294C13.7473 8.50588 13.9059 8.89412 13.9059 9.31765C13.9059 9.71765 13.7882 10.0762 13.5529 10.3934C13.3176 10.7115 13.0353 11.0353 12.7059 11.3647C11.8824 12.0706 11.3826 12.6292 11.2066 13.0405C11.0296 13.4527 10.9412 14.1882 10.9412 15.2471Z" fill="black"/>
</svg>
