<svg width="24" height="24" viewBox="0 0 24 24" fill="none" xmlns="http://www.w3.org/2000/svg">
<path d="M0 0V24H24V0H0ZM2.17493 2.1825H21.8251V21.8175H2.17493V2.1825ZM14.9399 6.14099C13.0199 6.14099 11.4301 7.8615 11.8801 9.9855C10.6351 9.924 9.42006 9.6 8.31006 9.036C7.20006 8.472 6.20999 7.6815 5.42999 6.714C5.14499 7.1925 4.99493 7.73851 4.99493 8.29351C4.99493 8.80801 5.12993 9.31651 5.36993 9.77101C5.60993 10.2255 5.97001 10.6125 6.39001 10.8975C5.89501 10.881 5.41492 10.746 4.97992 10.5045V10.5405C4.97992 11.2635 5.23506 11.964 5.68506 12.525C6.15006 13.0845 6.77999 13.47 7.48499 13.614C7.03499 13.734 6.54007 13.7535 6.07507 13.6725C6.27007 14.2935 6.66006 14.838 7.18506 15.2265C7.71006 15.6165 8.355 15.8325 9 15.843C7.89 16.7115 6.52505 17.1825 5.11505 17.1795C4.86005 17.1825 4.62005 17.1705 4.36505 17.1435C5.80505 18.063 7.46998 18.5505 9.16498 18.546C14.925 18.546 18.0751 13.7775 18.0751 9.63899C18.0751 9.50549 18.0751 9.36901 18.0601 9.23401C18.6751 8.78851 19.2149 8.23951 19.6349 7.61101C19.0649 7.86301 18.45 8.028 17.835 8.0985C18.48 7.7115 18.9751 7.098 19.2001 6.375C18.6001 6.7395 17.925 6.99451 17.22 7.12951C16.935 6.81601 16.5751 6.56701 16.1851 6.39601C15.7801 6.22651 15.3599 6.13949 14.9399 6.14099Z" fill="white"/>
</svg>
