<svg width="42" height="42" viewBox="0 0 42 42" fill="none" xmlns="http://www.w3.org/2000/svg">
<g clip-path="url(#clip0_12_135)">
<path d="M0 5.80905H42L39.3186 10.4628H7.84762L12.6196 18.9421L14.1182 16.4175H12.4616L9.85868 11.6456L22.1634 11.6853L12.7775 27.9725L0 5.80905Z" fill="black"/>
<path d="M24.2926 11.0771H39.0027L34.3887 19.2008L29.1827 19.0439L30.9177 16.1119L31.1551 15.6127L27.0932 15.6911L19.2446 29.1787L21.2954 32.4918L25.4367 25.5111L22.9519 25.4714L25.6731 20.8574L33.2843 20.8176L21.2567 41.8767L13.842 29.0605L24.2926 11.0771Z" fill="#FF0000"/>
<path d="M13.6179 32.1087C8.80524 29.4894 5.54007 24.3874 5.54007 18.5223C5.54007 18.3899 5.54211 18.2585 5.54516 18.126L3.14493 13.9704C2.77511 15.4263 2.57849 16.9514 2.57849 18.5223C2.57849 26.969 8.26325 34.0872 16.0151 36.2612L13.6179 32.1087ZM39.0506 14.8272L36.4375 19.3536C36.1685 24.4322 33.4484 28.8619 29.4375 31.4781L26.8243 36.0035C34.1442 33.5666 39.4215 26.6613 39.4215 18.5223C39.4215 17.257 39.2941 16.0212 39.0506 14.8272ZM21 0.101868C16.7527 0.101868 12.8416 1.53936 9.72519 3.95487H15.8144C17.4353 3.37723 19.1804 3.06345 21 3.06345C22.8195 3.06345 24.5647 3.37723 26.1855 3.95487H32.2747C29.1583 1.53936 25.2472 0.101868 21 0.101868Z" fill="black" stroke="black" stroke-width="0.203755" stroke-miterlimit="10"/>
</g>
<defs>
<clipPath id="clip0_12_135">
<rect width="42" height="41.8767" fill="white"/>
</clipPath>
</defs>
</svg>
